<svg height="512" viewBox="0 0 511.998 511.998" width="512" xmlns="http://www.w3.org/2000/svg"><path d="M451.317 423.77c-1.138-69.583-72.282-90.141-124.23-105.152-6.061-1.751-11.89-3.436-17.352-5.118v-28.705a102.29 102.29 0 0027.433-25.217h31.644c15.485 0 28.084-12.599 28.084-28.084v-33.996a36.06 36.06 0 002.92-14.249v-10.573c0-5.052-1.043-9.865-2.92-14.238V140.9C396.896 63.208 333.69 0 255.999 0 178.323 0 115.13 63.208 115.13 140.901v17.036c0 .134.015.263.02.396a36.01 36.01 0 00-2.968 14.344v10.573c0 19.987 16.248 36.248 36.219 36.248h8.264c5.724 27.448 22.575 50.858 45.598 65.292v28.71c-5.463 1.682-11.291 3.366-17.352 5.118-51.948 15.011-123.092 35.57-124.23 105.152l-.001.164v78.064c0 5.523 4.478 10 10 10h29.648c5.522 0 10-4.477 10-10s-4.478-10-10-10H80.679v-67.981c.421-24.277 11.573-42.476 35.094-57.271 15.521-9.763 34.496-16.719 53.2-22.538l24.161 47.074c2.693 5.247 9.588 7.03 14.488 3.724l10.773-7.267 9.249 34.763-15.847 69.495h-21.672c-5.522 0-10 4.477-10 10s4.478 10 10 10h251.193c5.522 0 10-4.477 10-10v-78.064l-.001-.163zm-129.782-85.939l1.993.577-17.287 33.714-32.351-21.815 27.411-18.489c6.368 2.004 13.14 3.963 20.234 6.013zm-65.529 24.539l20.052 13.522-9.691 36.426h-20.736l-9.688-36.415zm-.002-24.123l-33.742-22.753v-21.052a100.983 100.983 0 0033.736 5.784c11.823 0 23.176-2.042 33.736-5.777v21.045zm81.464-195.517l-.41-.261c-20.519-13.062-38.241-24.343-66.009-16.398a10.21 10.21 0 00-.765.252c-5.887 2.211-11.24 4.272-16.418 6.265-31.623 12.173-48.889 18.821-79.337 17.965v-8.008c0-44.924 36.547-81.472 81.469-81.472s81.469 36.548 81.469 81.472v.185zm39.428 88.764c0 4.458-3.626 8.084-8.084 8.084h-19.928a100.624 100.624 0 006.45-20.081h8.264c4.695 0 9.178-.908 13.299-2.543v14.54zm2.92-48.245c0 8.959-7.275 16.248-16.219 16.248h-6.138c.002-.248.01-43.041.01-43.041h6.129c8.943 0 16.219 7.276 16.219 16.22v10.573zm-231.415 16.249c-8.943 0-16.219-7.289-16.219-16.248v-10.573c0-8.944 7.275-16.22 16.219-16.22h6.129s.008 42.793.01 43.041zm6.316-63.042H148.4c-4.675 0-9.14.9-13.246 2.52C136.187 73.196 189.995 20 255.999 20c66.023 0 119.846 53.202 120.872 118.987a36.005 36.005 0 00-13.274-2.531h-6.317c-3.16-53.128-47.376-95.383-101.281-95.383-53.906 0-98.122 42.256-101.282 95.383zm20.414 72.027l-.004-.03a81.929 81.929 0 01-.597-9.698v-28.203c34.213.834 54.622-7.018 86.521-19.298a2115.503 2115.503 0 0115.874-6.06c18.89-5.273 29.759 1.648 49.393 14.147 3.407 2.169 7.144 4.546 11.15 6.987v32.427c0 14.871-4.024 28.811-11.011 40.824h-70.458c-5.522 0-10 4.477-10 10s4.478 10 10 10h54.124c-14.402 12.831-33.364 20.648-54.124 20.648-41.629-.001-76.043-31.393-80.868-71.744zm30.65 163.64l-17.306-33.717 1.988-.575c7.094-2.05 13.866-4.01 20.236-6.014l27.422 18.492zm26.53 119.875l13.609-59.68h20.161l13.63 59.68zm199.007 0H300.226l-15.872-69.497 9.253-34.776 10.799 7.282c4.902 3.305 11.797 1.522 14.489-3.728l24.134-47.069c18.703 5.819 37.677 12.774 53.197 22.536 23.52 14.794 34.673 32.994 35.094 57.271v67.981z"/><path d="M391.828 441.995h-50.397c-5.522 0-10 4.477-10 10s4.478 10 10 10h50.397c5.522 0 10-4.477 10-10s-4.477-10-10-10zm-246.601 50.003c-5.522 0-10 4.477-10 10s4.478 10 10 10h.028c5.522 0 9.985-4.477 9.985-10s-4.491-10-10.013-10z"/></svg>