<svg height="512" viewBox="0 0 24 24" width="512" xmlns="http://www.w3.org/2000/svg"><path d="M21.5 24c-1.379 0-2.5-1.121-2.5-2.5s1.121-2.5 2.5-2.5 2.5 1.121 2.5 2.5-1.121 2.5-2.5 2.5zm0-4c-.827 0-1.5.673-1.5 1.5s.673 1.5 1.5 1.5 1.5-.673 1.5-1.5-.673-1.5-1.5-1.5zM2 24c-1.103 0-2-.897-2-2 0-.234.04-.455.121-.674a.501.501 0 01.938.348A.887.887 0 001 22a1 1 0 002 0 .887.887 0 00-.059-.326.5.5 0 11.938-.348c.081.219.121.44.121.674 0 1.103-.897 2-2 2z"/><path d="M17.5 22H.5a.5.5 0 010-1H17v-2.5c0-1.379 1.121-2.5 2.5-2.5h2a.5.5 0 010 1h-2c-.827 0-1.5.673-1.5 1.5v3a.5.5 0 01-.5.5z"/><path d="M21.5 20a.5.5 0 01-.5-.5V.5a.5.5 0 011 0v19a.5.5 0 01-.5.5zm-12 2h-6a.5.5 0 01-.5-.5v-6a.5.5 0 01.5-.5h6a.5.5 0 01.5.5v6a.5.5 0 01-.5.5zM4 21h5v-5H4z"/><path d="M6.5 18.5A.5.5 0 016 18v-2.5a.5.5 0 011 0V18a.5.5 0 01-.5.5zm9 3.5h-6a.5.5 0 01-.5-.5v-6a.5.5 0 01.5-.5h6a.5.5 0 01.5.5v6a.5.5 0 01-.5.5zM10 21h5v-5h-5z"/><path d="M12.5 18.5a.5.5 0 01-.5-.5v-2.5a.5.5 0 011 0V18a.5.5 0 01-.5.5zm-3-2.5h-6a.5.5 0 01-.5-.5v-6a.5.5 0 01.5-.5h6a.5.5 0 01.5.5v6a.5.5 0 01-.5.5zM4 15h5v-5H4z"/><path d="M6.5 12.5A.5.5 0 016 12V9.5a.5.5 0 011 0V12a.5.5 0 01-.5.5zm9 3.5h-6a.5.5 0 01-.5-.5v-6a.5.5 0 01.5-.5h6a.5.5 0 01.5.5v6a.5.5 0 01-.5.5zM10 15h5v-5h-5z"/><path d="M12.5 12.5a.5.5 0 01-.5-.5V9.5a.5.5 0 011 0V12a.5.5 0 01-.5.5z"/><path d="M12.5 10h-6a.5.5 0 01-.5-.5v-6a.5.5 0 01.5-.5h6a.5.5 0 01.5.5v6a.5.5 0 01-.5.5zM7 9h5V4H7z"/><path d="M9.5 6.5A.5.5 0 019 6V3.5a.5.5 0 011 0V6a.5.5 0 01-.5.5z"/></svg>