<svg height="512" width="512" xmlns="http://www.w3.org/2000/svg"><path d="M420.237 125.195L266 24.746V10c0-5.523-4.477-10-10-10s-10 4.477-10 10v14.746L91.763 125.195a10 10 0 00-4.543 8.38V502c0 5.523 4.477 10 10 10h317.56c5.523 0 10-4.477 10-10V133.575a10 10 0 00-4.543-8.38zM256 131.686c5.523 0 10-4.477 10-10v-6.65c6.011 3.456 10.065 9.927 10.065 17.323 0 11.021-9.001 19.987-20.065 19.987s-20.065-8.966-20.065-19.987c0-7.396 4.054-13.867 10.065-17.323v6.65c0 5.523 4.477 10 10 10zM404.78 492H107.22V138.996L246 48.614v45.02c-17.27 4.444-30.065 20.122-30.065 38.726 0 22.049 17.973 39.987 40.065 39.987s40.065-17.938 40.065-39.987c0-18.604-12.796-34.282-30.065-38.726v-45.02l138.78 90.382z"/><path d="M135.296 231.906V454.05c0 5.523 4.477 10 10 10h221.407c5.523 0 10-4.477 10-10V231.906c0-5.523-4.477-10-10-10H145.296c-5.523 0-10 4.477-10 10zm20 10h201.407V444.05H155.296z"/><path d="M286.045 267.802c-5.092-2.137-10.953.258-13.09 5.351l-53.169 126.69c-2.137 5.092.258 10.953 5.351 13.09a9.958 9.958 0 003.865.782c3.907 0 7.619-2.304 9.225-6.133l53.169-126.689c2.138-5.093-.258-10.953-5.351-13.091zm-38.723 30.616c0-20.567-15.025-37.3-33.493-37.3s-33.493 16.732-33.493 37.3 15.025 37.3 33.493 37.3 33.493-16.733 33.493-37.3zm-33.493 17.3c-7.314 0-13.493-7.922-13.493-17.3s6.179-17.3 13.493-17.3 13.493 7.922 13.493 17.3c0 9.377-6.179 17.3-13.493 17.3zm81.807 32.02c-18.468 0-33.493 16.732-33.493 37.3 0 20.567 15.025 37.3 33.493 37.3s33.493-16.732 33.493-37.3c-.001-20.568-15.026-37.3-33.493-37.3zm0 54.599c-7.314 0-13.493-7.922-13.493-17.3s6.179-17.3 13.493-17.3 13.493 7.922 13.493 17.3-6.179 17.3-13.493 17.3z"/></svg>