<svg xmlns="http://www.w3.org/2000/svg" viewBox="0 0 566 560"><circle cx="283.1" cy="280.7" r="279.3" fill="#8ac440"/><linearGradient id="a" gradientUnits="userSpaceOnUse" x1="315.953" y1="258.046" x2="504.432" y2="446.524"><stop offset="0" stop-color="#026838"/><stop offset=".896" stop-color="#026838" stop-opacity="0"/></linearGradient><path d="M562.1 281.1c0-17.6-1.7-34.9-4.8-51.6l-91.4-90.7-202.4 188L223 435.1l119 119c125.8-27.2 220.1-139.1 220.1-273z" fill="url(#a)"/><path d="M223.6 435.2L99.2 310.7c-15.6-15.6-15.6-40.8 0-56.4 15.6-15.6 40.8-15.6 56.4 0l68.4 68.4 186.1-184.1c15.7-15.5 40.9-15.4 56.4.3 15.5 15.7 15.4 40.9-.3 56.4L223.6 435.2z" fill="#fff"/></svg>