<svg version="1.1" id="Слой_1" xmlns="http://www.w3.org/2000/svg" x="0" y="0" viewBox="-266 67 346.8 427" xml:space="preserve"><style>.st0{fill:#ff393c}</style><path class="st0" d="M-33.6 221.7c-5.5 0-10 4.5-10 10v189c0 5.5 4.5 10 10 10s10-4.5 10-10v-189c0-5.5-4.5-10-10-10zm-118 0c-5.5 0-10 4.5-10 10v189c0 5.5 4.5 10 10 10s10-4.5 10-10v-189c0-5.5-4.5-10-10-10z"/><path class="st0" d="M-237.6 194.1v246.4c0 14.6 5.3 28.2 14.7 38.1 9.3 9.8 22.2 15.4 35.7 15.4H2c13.5 0 26.4-5.6 35.7-15.4 9.3-9.8 14.7-23.5 14.7-38.1V194.1c18.5-4.9 30.6-22.8 28.1-41.9-2.5-19-18.7-33.2-37.9-33.2H-8.6v-12.5c.1-10.5-4.1-20.6-11.5-28C-27.6 71-37.7 66.9-48.2 67H-137c-10.5-.1-20.6 4-28.1 11.5-7.4 7.4-11.6 17.5-11.5 28V119h-51.2c-19.2 0-35.4 14.2-37.9 33.3-2.5 19 9.6 36.9 28.1 41.8zM2 474h-189.2c-17.1 0-30.4-14.7-30.4-33.5V195h250v245.5C32.4 459.3 19.1 474 2 474zm-158.6-367.5c-.1-5.2 2-10.2 5.7-13.9 3.7-3.7 8.7-5.7 13.9-5.6h88.8c5.2-.1 10.2 1.9 13.9 5.6 3.7 3.7 5.7 8.7 5.7 13.9V119h-128v-12.5zm-71.2 32.5H42.6c9.9 0 18 8.1 18 18s-8.1 18-18 18h-270.4c-9.9 0-18-8.1-18-18s8.1-18 18-18z"/><path class="st0" d="M-92.6 221.7c-5.5 0-10 4.5-10 10v189c0 5.5 4.5 10 10 10s10-4.5 10-10v-189c0-5.5-4.5-10-10-10z"/></svg>