<svg data-name="Слой 1" xmlns="http://www.w3.org/2000/svg" viewBox="0 0 213.66 26.34"><path d="M30.41 1.86c3.56-.24 7.13-.47 10.69-.57a112.48 112.48 0 0113.36.56 35.9 35.9 0 010 23 117.52 117.52 0 01-12.15.59c-4-.07-7.94-.31-11.9-.6.4-2 .81-4.07 1.21-6.1 5.46.28 11 .72 16.42 0 .14-.81.25-1.64.33-2.46h-11v-5.86h11.05c-.08-.82-.18-1.63-.31-2.45A94.48 94.48 0 0031.63 8c-.41-2-.82-4.07-1.22-6.1zm-30 0h26.88v23h-8.6V8.37H9v16.49H.42v-23zm59.4 0h8.55v8.3h3.18Q75 6 78.43 1.86h9.85c-3.22 3.6-6.45 7.14-9.67 10.78q5.16 6.09 10.29 12.2H78.36q-3.45-4.34-6.91-8.65h-3.08v8.65h-8.55z" fill-rule="evenodd" fill="#2a2e69"/><path d="M122.15 1.4a4.88 4.88 0 014.3 1 5.34 5.34 0 011.34 4.17 4.61 4.61 0 01-2.08 3.89 5.2 5.2 0 01-5.19-.22c-1.63-1.2-1.86-3.5-1.54-5.36a4.05 4.05 0 013.17-3.43zm.45 1.42a2.47 2.47 0 00-1.5 2.24 6.22 6.22 0 00.37 3.47 2.21 2.21 0 002.86.77 3 3 0 001.26-2.51 5.63 5.63 0 00-.59-3.26 2.11 2.11 0 00-2.43-.71zm8.28-.63c1.57-1.24 3.75-1 5.57-.56-.1.49-.19 1-.29 1.47a5 5 0 00-3.52.13 3.34 3.34 0 00-1.21 3.05c0 1 .22 2.28 1.24 2.79a6.24 6.24 0 003.8 0l.33 1.4a8 8 0 01-5.36 0 3.83 3.83 0 01-2.13-3.28c-.21-1.78.09-3.87 1.57-5.07zm-39.08-.6a40.47 40.47 0 018.38 0v7.18H91.8V1.59zm18.72-.15h6.19v8h1v3.78h-1.59v-2.39h-6.69v2.39h-1.59V9.45c.36-.08.86.11 1.1-.25a6.26 6.26 0 001.14-2.94c.26-1.61.31-3.23.45-4.85zm1.75 1.37c-.26 2.23 0 4.7-1.37 6.64h3.77V2.82zm25.2.08V1.44h8.12V2.9h-3v8h-2v-8zm11-1.44c-1.09 3.13-2.19 6.27-3.27 9.41h2l.69-2.16h3.51c.22.72.44 1.44.67 2.16h2.12l-3.18-9.42zm1.24 1.28c.44 1.53.86 3.07 1.31 4.6h-2.64c.46-1.53.89-3.06 1.33-4.6zm5.64-1.29c1.59 0 3.18-.05 4.76.05a2.45 2.45 0 012.34 1.9 2.26 2.26 0 01-1.19 2.53 2.43 2.43 0 011.28 3.3 2.86 2.86 0 01-2.69 1.63h-4.5V1.44zm2.06 1.42V5.3a8 8 0 002.35-.14A1.21 1.21 0 00159.6 3a11.44 11.44 0 00-2.19-.1zm0 3.82v2.74a12 12 0 002.4-.09 1.38 1.38 0 000-2.54 11 11 0 00-2.43-.11zm8.45-.18c.14-1.68.21-3.37.32-5.06h6.06v9.42h-2v-8h-2.25c-.17 2.13 0 4.36-.84 6.38a3.82 3.82 0 01-2.89 2.07c-.15-.47-.31-.94-.45-1.4a3.94 3.94 0 001.37-.91 4.86 4.86 0 00.68-2.46zm8.55-3.4a2.67 2.67 0 012.44-1.64c1.48-.05 3 0 4.44 0v9.42h-2.07V7.06c-.81 0-1.87-.19-2.41.6a18.53 18.53 0 00-1.08 3.2h-2c.36-1.11.58-2.28 1.05-3.35a2.21 2.21 0 011-1 2.65 2.65 0 01-1.37-3.45zm2.74-.1a1.42 1.42 0 000 2.59 8.74 8.74 0 002.11.09V2.86a9 9 0 00-2.07.11zm6.17-1.53h6.6v1.39h-4.53v2.4h3.82V6.6h-3.81v2.82h4.73v1.44h-6.8V1.44zm8.45 0h2.54c.91 2.13 1.75 4.32 2.69 6.53.91-2.17 1.81-4.35 2.76-6.51h2.44v9.41h-2V4.47c-.74 1.88-1.58 3.72-2.38 5.57h-1.69c-.75-1.83-1.6-3.63-2.31-5.49v6.36h-2V1.45zM168.23 13.2l.81-.61a2.89 2.89 0 001.83 1.15 3.37 3.37 0 002.13-1.05l.6.53a3.67 3.67 0 01-2.73 1.78 3.49 3.49 0 01-2.64-1.8zm-58.73 3.29c1.57-1.16 3.69-1 5.48-.49-.1.49-.19 1-.29 1.47-1.16-.21-2.5-.51-3.57.16a3.51 3.51 0 00-1.12 3.24 2.7 2.7 0 001.31 2.61 6.54 6.54 0 003.72 0l.33 1.41a8.35 8.35 0 01-5.25.09 3.72 3.72 0 01-2.2-3.12c-.29-1.88 0-4.13 1.62-5.36zm19.11-.7a5.1 5.1 0 014.07.67 4.59 4.59 0 011.64 3.48 5.31 5.31 0 01-1.43 4.38 5 5 0 01-4.73.79 3.77 3.77 0 01-2.54-2.77 6.86 6.86 0 01.34-4.47 3.81 3.81 0 012.65-2.08zm.48 1.41a2.44 2.44 0 00-1.42 2.05 7 7 0 00.22 3.4 2.16 2.16 0 003.6.5 4.52 4.52 0 00.67-2.74 4.44 4.44 0 00-.72-2.69 2.22 2.22 0 00-2.35-.52zm77.1-1a8.46 8.46 0 015.28-.29A2.13 2.13 0 01213 18a2.48 2.48 0 01-1.38 2.06 2.55 2.55 0 011.55 1.56 2.74 2.74 0 01-1.67 3.24 8.4 8.4 0 01-5.72-.14l.43-1.33a6.94 6.94 0 004 .21 1.41 1.41 0 00.51-2.31c-.76-.59-1.79-.4-2.68-.44v-1.27a3.87 3.87 0 002.21-.32 1.21 1.21 0 00.53-1.41 1.33 1.33 0 00-1.13-.71 7.78 7.78 0 00-3.06.39c-.12-.43-.25-.86-.37-1.3zm-89.56-.43h6.5v1.43h-4.43v2.29c1.5.06 3.21-.28 4.48.72a2.89 2.89 0 01-1.18 4.88 47.91 47.91 0 01-5.36.14c-.05-3.14 0-6.28 0-9.42zm2.07 5v3a10.77 10.77 0 002.34-.09c1.17-.42 1.22-2.46 0-2.79a11.89 11.89 0 00-2.31-.1zm17.37-5c1.73.09 3.51-.23 5.19.23 2 .63 2.32 3.68.71 4.91-1.07.88-2.55.63-3.83.67v3.6h-2.09v-9.37zm2.08 1.41v3a12.17 12.17 0 001.81-.06 1.54 1.54 0 000-2.86 9.32 9.32 0 00-1.83-.09zm6.26 8v-9.4h2.07v3.75h3.73v-3.71h2.07v9.4h-2.08V21h-3.74v4.18zm9.92-9.41h2v3.68c1.46.06 3.13-.26 4.38.7 1.67 1.25 1.16 4.37-.94 4.86a37.5 37.5 0 01-5.51.17v-9.41zm2.06 5v3a14.19 14.19 0 002.26-.06 1.52 1.52 0 00.26-2.71 6.85 6.85 0 00-2.52-.21zm6.48-5h2v9.41h-2v-9.37zm4 0h2v6.56c1.39-2.18 2.74-4.38 4.1-6.58h2v9.38h-2v-6.47c-1.37 2.15-2.69 4.33-4.08 6.47h-2v-9.29zm14.31 0h6.6v1.45h-4.54v8h-2.06v-9.41zm8 0h3.94a3.14 3.14 0 012.49 1.12 3.06 3.06 0 01-.8 4.21c-1.07.65-2.37.42-3.56.46v3.61h-2.08v-9.36zm2.07 1.42v3c.77-.05 1.65.18 2.32-.31a1.61 1.61 0 00-.46-2.6 8.26 8.26 0 00-1.86-.09zm5.47-1.42h2c.79 1.91 1.51 3.85 2.24 5.79q1.06-2.89 2.14-5.78h2c-1.06 2.64-2.14 5.28-3.2 7.92a2.42 2.42 0 01-1.37 1.57 5.62 5.62 0 01-2.76-.13c.1-.46.2-.91.32-1.37a5.6 5.6 0 001.42.11c.46-.13.52-.7.76-1.06l-.56-.11-3-6.93zM91.8 18.11h8.38v6.75a37.28 37.28 0 01-8.38.05z" fill="#e6204a" fill-rule="evenodd"/></svg>