<svg data-name="Слой 1" xmlns="http://www.w3.org/2000/svg" viewBox="0 0 213.66 68.29"><path d="M33.94 61.26A28.33 28.33 0 01.34 55.2l5.88-8c6 6.38 13 8.92 21.55 6 8.23-3.42 12.05-9.81 12.46-18.5.62-.13 9-.15 9.7 0a28.76 28.76 0 01-15.99 26.56zM7.41 21A19.68 19.68 0 0119 15a17.82 17.82 0 019.89 1.53A18.75 18.75 0 0136.57 23a1.1 1.1 0 001 .57h9.83a5.06 5.06 0 00.53-.06 28.37 28.37 0 00-47.6-9.44l6 8zm45.18 4.15a1.25 1.25 0 00-1.16-.6H7.7a2.24 2.24 0 00.17.35C9.91 27.58 12 30.27 14 33a1.38 1.38 0 001.25.59h43.21l-.46-.75c-1.79-2.57-3.62-5.13-5.41-7.71zm135.59 8.6h.15v10.07c0 .89 0 .92.94.92h3.3c.76 0 .92-.17.93-.93V26.83a1.43 1.43 0 00-1.5-1.49h-1.49c-1.8 0-1.94.08-2.91 1.62l-5.64 8.9c-.12.19-.27.36-.4.53a2.1 2.1 0 01-.16-.93v-9.2c0-.86-.06-.91-.88-.91h-3.07c-1.13 0-1.16 0-1.16 1.13v15.85a6.33 6.33 0 000 .87 1.52 1.52 0 001.66 1.52h1.81a2.18 2.18 0 002.15-1.15c1.63-2.56 3.3-5.11 4.94-7.66.45-.71.88-1.45 1.33-2.18zM35.61 44.82a1.19 1.19 0 001.22-.73 19.17 19.17 0 002-5.92 7.29 7.29 0 00.16-2.4H15.06a1.1 1.1 0 00-1 .49c-2 2.69-4 5.35-6.06 8-.1.14-.18.29-.35.56h1.2q13.4-.01 26.76 0zm166.72-1.12c-.22.87-.42 1-1.31 1h-3.86c-.18 0-.35 0-.62-.07a4.54 4.54 0 01.06-.77c.44-1.81.9-3.61 1.35-5.42a3.06 3.06 0 012.43-2.57l-.51-.24a3.49 3.49 0 01-2-2 6 6 0 01.9-6.42 5.17 5.17 0 013.11-1.71 11.41 11.41 0 012.1-.21h6.85c1.63 0 2.06.41 2.07 2.05v16.2a5 5 0 010 .55c0 .45-.19.62-.65.62h-4.09c-.48 0-.56-.11-.56-.65v-6.88a12.63 12.63 0 00-2.55.08 1.54 1.54 0 00-1.23 1c-.29.81-.54 1.64-.76 2.47-.28.98-.49 1.98-.73 2.97zm1.9-10.7c1.08.06 2.18 0 3.31 0v-3.11h-3.18a1.39 1.39 0 00-1.52 1.44 1.44 1.44 0 001.39 1.67zM103.6 44.73h4c.48 0 .59-.12.63-.61v-7.24h6v6.79c0 1 .1 1.05 1 1.05h3.23c1.07 0 1.07 0 1.07-1.11V25.83c0-.39-.14-.52-.54-.52h-4.09c-.47 0-.63.2-.68.68v6.37h-6v-6.24c0-.72-.11-.82-.83-.82h-3.19c-1.25 0-1.27 0-1.27 1.29v17.47c.07.51.16.67.67.67zm20.71-2.37a4.3 4.3 0 003.92 2.34c3.09.06 6.18 0 9.27 0h.08c.46 0 .58-.16.62-.64v-3.22c0-.5-.1-.57-.61-.6h-6.76a5.22 5.22 0 01-.79 0c-.64-.09-.95-.37-1-1s0-1.61 0-2.5h7.31c.41 0 .53-.18.58-.6a.75.75 0 000-.15v-2.83c0-.58-.11-.66-.71-.69H129v-1.28a1.22 1.22 0 011.22-1.36 4.1 4.1 0 01.7 0h6.13c.55 0 .66-.11.67-.64v-3.23c0-.48-.09-.54-.55-.57h-8.75a4.66 4.66 0 00-4.1 2.36 5.29 5.29 0 00-.66 2.49v9.67a5.23 5.23 0 00.65 2.45zm22.2-3.36v4.87c0 .76-.08.83-.79.84H142c-.68 0-.81-.15-.83-.84V27.6a6.55 6.55 0 01.13-1.25 1.29 1.29 0 011.15-1 4.43 4.43 0 01.63 0h7.15a7.2 7.2 0 013.69.92 5.59 5.59 0 012.83 4.38 6.85 6.85 0 01-1 4.67 5.62 5.62 0 01-2.62 2.17 11.31 11.31 0 01-4.38.73h-2.3zm0-5h2.93a1.7 1.7 0 001.77-1.26 2.38 2.38 0 000-1.76 1.5 1.5 0 00-1.35-1.05c-1.09-.05-2.18 0-3.31 0zM91.36 45a7.79 7.79 0 007.21-5.28 15.47 15.47 0 00.77-6.19 10.55 10.55 0 00-.78-3.53 7.3 7.3 0 00-4.92-4.49 12.47 12.47 0 00-7.57.27 10.36 10.36 0 00-1.36.62.57.57 0 00-.29.79c.36 1 .71 1.91 1.1 2.86.16.39.34.46.75.37a9.88 9.88 0 001.21-.42 8.41 8.41 0 013.27-.28 3 3 0 012.8 2.93h-5.1c-.74 0-.79.07-.79.82v2.52c0 .84.07.79.82.8h5.28c-.24.68-.39 1.24-.63 1.76a2.75 2.75 0 01-2.32 1.66 10.76 10.76 0 01-2.66-.09 24 24 0 01-2.7-.83c-.56-.18-.66-.15-.92.38-.42.85-.82 1.7-1.22 2.55-.3.67-.25.82.4 1.2a11.48 11.48 0 003.2 1.26 16.69 16.69 0 004.45.32zM165 43.74V31.87a8 8 0 01.09-1.09 1 1 0 01.86-.9 4.37 4.37 0 011-.11h6.29c.67 0 .79-.11.8-.77v-3a3.53 3.53 0 00-.11-.65c-.32 0-.61-.05-.89-.05h-8a6.79 6.79 0 00-.78 0 4.56 4.56 0 00-4.24 3.3 6.56 6.56 0 00-.27 1.7v13.53c0 .76.09.85.86.86H164c1 .05 1 .05 1-.95zm-115.51 1a13.45 13.45 0 002.17.09.88.88 0 00.84-.44l5.76-8.16a4.32 4.32 0 00.18-.44H51a34.72 34.72 0 01-1.54 8.93zm35.41 7.2l-.17.59-.15-.53-.06-.2-.66-2.06h-1v3.69h.68v-3.02l.28 1 .67 2.06H85l.66-2.06c.06-.19.15-.51.28-1v3.04h.69v-3.69h-1zm3.2 0h2v-.6h-2v-.92h2.12v-.6h-2.9v3.69h3v-.6h-2.25zm6.54-1.06l.66-1.06h-.79l-.52.85a3.92 3.92 0 01-.41.59.36.36 0 01-.24.13v-1.63h-.74v1.57a.36.36 0 01-.25-.13 6 6 0 01-.41-.59l-.51-.85h-.79l.66 1.06a2.32 2.32 0 00.42.58l-1.2 2.05h.83l.92-1.68a.38.38 0 00.14 0 .65.65 0 00.19 0v1.61h.74v-1.54a.72.72 0 00.33-.07l.91 1.68h.83l-1.22-2.05a2.32 2.32 0 00.42-.58zm4 2h.49v1.7h-.66v-1.13h-2.41v1.06h-.66v-1.7h.41a4.06 4.06 0 00.34-.85 8.31 8.31 0 00.22-1l.16-1.16h2.06zm-.74-2.41h-.69l-.08.61a9.7 9.7 0 01-.2 1 4.14 4.14 0 01-.26.78h1.23zm3.21 1.14l-1-1.78h-.81l1.46 2.44a3.94 3.94 0 01-.22.41.47.47 0 01-.17.15.41.41 0 01-.21.05 1 1 0 01-.41-.11l-.22.64a.88.88 0 00.29.11 1.64 1.64 0 00.37 0 1.17 1.17 0 00.45-.08.91.91 0 00.34-.25 2.57 2.57 0 00.33-.56l1.38-2.85h-.79zm4.25-.31h-1.6v-1.54h-.78v3.69h.78v-1.58h1.6v1.58h.78v-3.69h-.78zm3.53-1.47l1.34 3.69h-.77l-.32-1h-1.41l-.33 1h-.77l1.35-3.69zm.07 2.16l-.36-1.06-.11-.35-.06-.18v.05c0 .07 0 .14-.07.22s-.17.52-.45 1.32zm4.8-1a1.21 1.21 0 01-.16.63 1.11 1.11 0 01-.47.44 1.58 1.58 0 01-.71.15h-.92v1.3h-.77v-3.75h1.65a1.51 1.51 0 011 .3 1.08 1.08 0 01.33.87zm-.78 0c0-.39-.22-.58-.68-.58h-.8v1.19h.82a.72.72 0 00.49-.15.58.58 0 00.12-.51zm4.35-.73a1.9 1.9 0 01.49 1.38 2.18 2.18 0 01-.23 1 1.61 1.61 0 01-.65.67 2.07 2.07 0 01-1 .23 1.8 1.8 0 01-1.36-.51 1.93 1.93 0 01-.5-1.4 1.88 1.88 0 01.5-1.39 2.11 2.11 0 012.74 0zm-.3 1.38a1.42 1.42 0 00-.28-.94 1 1 0 00-.8-.34 1 1 0 00-.8.34 1.71 1.71 0 000 1.89 1 1 0 00.79.35 1 1 0 00.8-.34 1.46 1.46 0 00.26-1.01zm4.18 1.22h.49v1.7h-.7v-1.11h-2.37v1.06H118v-1.7h.41a4.08 4.08 0 00.33-.85 6.85 6.85 0 00.23-1l.16-1.16h2.06zm-.74-2.41h-.69l-.08.61a9.7 9.7 0 01-.2 1 5 5 0 01-.26.78h1.23zm4.06.83h-1.61v-1.52h-.77v3.69h.77v-1.58h1.61v1.58h.77v-3.69h-.77zm3.47-1.52l1.34 3.69h-.76l-.33-1h-1.4l-.33 1h-.77l1.34-3.69zm.08 2.16l-.36-1.06-.12-.35v-.18.05c0 .07 0 .14-.06.22s-.17.52-.45 1.32zm3.06-2.16H133v3.69h-.77v-1.4h-.91l-.85 1.4h-.87l1-1.55a1.07 1.07 0 01-.59-.37 1 1 0 01-.22-.67 1 1 0 01.36-.82 1.61 1.61 0 01.99-.28zm.08.6c-.46 0-.68.17-.68.53a.53.53 0 00.16.41.73.73 0 00.5.15h1v-1.09zm5.16 0h1.19v3.09h.77v-3.09h1.19v-.6h-3.15zm6.61.57a1.21 1.21 0 01-.17.63 1.15 1.15 0 01-.46.44 1.59 1.59 0 01-.72.15h-.92v1.3H140v-3.69h1.66a1.55 1.55 0 011 .3 1.08 1.08 0 01.34.87zm-.78 0c0-.39-.23-.58-.69-.58h-.8v1.19h.82a.7.7 0 00.49-.15.59.59 0 00.18-.45zm2.88-1.18l1.34 3.69h-.77l-.32-1h-1.41l-.33 1h-.77l1.35-3.69zm.07 2.16l-.36-1.06-.11-.35-.06-.18v.05c0 .07 0 .14-.07.22s-.17.52-.45 1.32zm4.15-.69h-1.61v-1.46h-.77v3.69h.77v-1.58h1.61v1.58h.77v-3.69h-.77zm3.21 1.66a1 1 0 01-.8-.33 1.48 1.48 0 01-.28-1 1.44 1.44 0 01.27-1 1 1 0 01.79-.33 1.17 1.17 0 01.6.16.81.81 0 01.34.45l.68-.19a1.38 1.38 0 00-.58-.77 1.94 1.94 0 00-1-.26 1.81 1.81 0 00-1.36.49 1.94 1.94 0 00-.47 1.4 1.9 1.9 0 00.49 1.4 1.8 1.8 0 001.37.51 1.92 1.92 0 001-.26 1.67 1.67 0 00.64-.8l-.68-.25a1 1 0 01-1.01.79zm2.15.56h.77V50.4h1.62v3.05h.75v-3.69h-3.14zm7-3.24a1.86 1.86 0 01.49 1.38 2.18 2.18 0 01-.23 1 1.61 1.61 0 01-.65.67 2.07 2.07 0 01-1 .23 1.8 1.8 0 01-1.36-.51 1.93 1.93 0 01-.49-1.4 1.87 1.87 0 01.49-1.39 2.11 2.11 0 012.74 0zm-.3 1.38a1.42 1.42 0 00-.28-.94 1.1 1.1 0 00-1.59 0 1.39 1.39 0 00-.29.94 1.46 1.46 0 00.29.95 1 1 0 00.79.35 1 1 0 00.8-.34 1.46 1.46 0 00.23-.95zm4.41-.66a1.31 1.31 0 01-.16.63 1.17 1.17 0 01-.47.44 1.59 1.59 0 01-.72.15h-.91v1.3h-.78v-3.68h1.66a1.55 1.55 0 011 .3 1.08 1.08 0 01.33.87zm-.78 0c0-.39-.23-.58-.69-.58h-.79v1.19h.82a.74.74 0 00.49-.15.62.62 0 00.17-.44zm1-.58h1.19v3.09h.77v-3.07h1.2v-.6h-3.26zm5.95.87h-1.6v-1.45h-.78v3.69h.78v-1.58h1.6v1.58h.78v-3.69h-.78zm3.53-1.47l1.34 3.69H176l-.32-1h-1.41l-.33 1h-.77l1.35-3.69zm.07 2.16l-.36-1.06-.11-.35-.06-.18v.05c0 .07 0 .14-.07.22s-.17.52-.45 1.32zm3.06-2.16h1.84v3.69h-.77v-1.4h-.91l-.85 1.4H177l1-1.55a1 1 0 01-.82-1 1 1 0 01.36-.82 1.61 1.61 0 01.97-.3zm.08.6c-.45 0-.68.17-.68.53a.53.53 0 00.17.41.7.7 0 00.49.15h1v-1.07zm6.07.46l.69-1.06h-.78l-.54.85a3.89 3.89 0 01-.41.56.45.45 0 01-.29.16v-1.55h-.77v3.69h.77v-1.59h.18l.15-.06 1 1.68h.84l-1.27-2.05a3 3 0 00.33-.61zm4.26-.61a1.87 1.87 0 01.5 1.38 2.18 2.18 0 01-.23 1 1.61 1.61 0 01-.65.67 2.07 2.07 0 01-1 .23 1.8 1.8 0 01-1.36-.51 1.93 1.93 0 01-.5-1.4 1.88 1.88 0 01.5-1.39 1.82 1.82 0 011.36-.5 1.8 1.8 0 011.28.54zm-.29 1.38a1.42 1.42 0 00-.28-.94 1.11 1.11 0 00-1.6 0 1.39 1.39 0 00-.28.94 1.46 1.46 0 00.29.95 1 1 0 00.79.35 1 1 0 00.8-.34 1.46 1.46 0 00.18-.94zm3.41.33l-.16.59-.13-.49-.05-.2-.8-2.04h-1v3.69h.69v-3.04l.28 1 .66 2.06h.55l.67-2.06c.06-.19.15-.51.27-1v3.04h.69v-3.69h-1zm2.43 1.53h.77V50.4h1.62v3.05h.74v-3.69h-3.13zm5.88-3.69l1.34 3.69h-.76l-.33-1h-1.4l-.33 1h-.77l1.34-3.69zm.08 2.16l-.37-1.06-.11-.35v-.18.05l-.06.22-.45 1.32zm4.14-.69H203v-1.45h-.77v3.69h.77v-1.58h1.61v1.58h.77v-3.69h-.77zm2.16 1.39v-2.84h-.69v3.69h.88l1.6-2.84v2.84h.69v-3.69h-.87zm6.32-2.86v3.69h-.77v-1.4h-.9l-.86 1.4h-.87l1-1.55a1 1 0 01-.82-1 1 1 0 01.36-.82 1.61 1.61 0 011-.28zm-.77.6h-1c-.45 0-.68.17-.68.53a.53.53 0 00.17.41.7.7 0 00.49.15h1z" fill="#0d4d9b"/></svg>