<svg data-name="Слой 1" xmlns="http://www.w3.org/2000/svg" viewBox="0 0 213.66 59.4"><path d="M91.42 26.8h1.52c.28 0 .75-.13.75.69v1.79c0 .82-.47.7-.75.7h-7.73c-.27 0-.71.12-.71-.7v-1.79c0-.82.44-.69.71-.69h1.54V20h-1c-2.14 0-2.41 1.22-2.63 2.23l-.84 4a5.08 5.08 0 01-1.44 3.28 6.45 6.45 0 01-3.64 1.1c-.59 0-.62-.27-.72-.5l-.91-2.51a.46.46 0 01.35-.66l.89-.2a1.69 1.69 0 001.06-.74 6 6 0 00.45-1.56l.56-2.78A4.39 4.39 0 0182 18.15v-.1a3.74 3.74 0 01-2.7-3.22l-.41-2.35c-.28-1.66-.74-1.93-1.53-2.12l-.87-.21a.5.5 0 01-.34-.69l.72-2.35a.62.62 0 01.67-.4 6.42 6.42 0 013 .83 4.38 4.38 0 012.1 3.54l.52 2.82c.38 2 1.3 2.49 3 2.49h.7v-5.94h-1.65c-.27 0-.71.14-.71-.7V8c0-.84.44-.72.71-.72h7.73c.28 0 .75-.12.75.72v1.75c0 .84-.47.7-.75.7h-1.52v5.94h.69c1.66 0 2.57-.47 3-2.49l.52-2.82a4.38 4.38 0 012.12-3.54 6.29 6.29 0 012.94-.83.61.61 0 01.66.4l.65 2.35a.49.49 0 01-.34.69l-.86.21c-.8.19-1.26.46-1.53 2.12l-.42 2.35a3.76 3.76 0 01-2.7 3.22v.1a4.39 4.39 0 013.12 3.51l.55 2.78a6.41 6.41 0 00.48 1.56 1.67 1.67 0 001.07.67l.91.2a.46.46 0 01.35.66l-.92 2.47c-.08.23-.13.5-.72.5a6.45 6.45 0 01-3.64-1.1c-1-.82-1.17-1.89-1.45-3.28l-.8-4A2.3 2.3 0 0092.46 20h-1zm29.91-1.66c0-.42-.17-.59-.69-.59h-2c-.51 0-.69.12-.69.59v1.42h-3.61v-4.24h4.89c.59 0 .81-.12.81-.69v-2c0-.6-.22-.68-.81-.68h-4.89v-3.51h3.51v1.21c0 .47.17.6.65.6h2.08c.5 0 .63-.13.63-.6v-4c0-.45-.13-.6-.63-.6h-12c-.65 0-.74.15-.74.67v1.79c0 .53.09.69.74.69H110v11.67h-1.4c-.65 0-.74.12-.74.68v1.73c0 .56.09.7.74.7h12c.66 0 .76-.14.76-.7zm13.38-9.7h3.4v11.43h-1.39c-.55 0-.76.05-.76.68v1.73c0 .63.17.7.8.7h7.14c.53 0 .81-.07.81-.7v-1.73c0-.63-.28-.68-.81-.68h-1.34V15.16h1.34c.53 0 .81-.07.81-.69v-1.79c0-.59-.28-.67-.81-.67h-14.66c-.55 0-.76.08-.76.67v1.79c0 .62.21.69.76.69h1.39v1.14c0 2.22 0 3.37-.14 5.4-.07 1.59-.21 3.24-1.18 4.2a3.3 3.3 0 01-2 .83l-.42.07a.54.54 0 00-.48.69l.73 2.53c.1.35.42.39.77.39a6.07 6.07 0 004.71-2c1.45-1.68 1.69-3.87 1.84-5.62.17-2.14.2-3.43.2-5.38zm27.7-4.59v15.54h-5.9c1.55-3.05 2.13-6.32 2.26-11.39l.11-4.15zm4.68 16v-16.4h1.77c.28 0 .72.14.72-.7V8c0-.84-.44-.69-.72-.69h-15.92c-.27 0-.72-.15-.72.69v1.75c0 .84.45.7.72.7h1.78v3.87A27 27 0 01152 26.8h-1.1c-.55 0-.48.26-.48.67v7.58c0 .42 0 .63.48.63h3.53c.56 0 .53-.21.53-.63V30H165v5.07c0 .42 0 .63.52.63h3.55c.56 0 .47-.3.47-.63v-7.6c0-.41.09-.67-.47-.67zm16.54-11.87c1.94 0 3 1.6 3 6s-1.06 6.1-3 6.1-3-1.62-3-6 1.11-6.13 3-6.13zm7.55 5.8c0-6-2.49-9.14-7.48-9.14-5.72 0-7.64 4.23-7.64 9.14 0 6.46 2.4 9.68 7.46 9.68s7.66-3.33 7.66-9.73zm13.73-1.09h-.73v-4.42h1.06c2.44 0 3.13.49 3.13 2.09 0 1.82-.89 2.28-3.46 2.28zM198.45 12c-.65 0-.77.13-.77.66v1.79c0 .53.12.69.77.69h1.4v11.73h-1.4c-.65 0-.77.12-.77.68v1.73c0 .56.12.7.77.7H206c.63 0 .81-.14.81-.7v-1.73c0-.56-.18-.68-.81-.68h-1.79v-3.95h1.42c4.19 0 7-2.29 7-5.87a5 5 0 00-1.68-3.88c-1.13-.86-2.58-1.15-5.43-1.15zM78.28 46.78v1h3.51v.46c-.05 1.11-.43 3.08-2.28 3.08a2.32 2.32 0 01-2.1-2.48h-1.25c.08.82.53 3.53 3.31 3.53 3.22 0 3.61-3.22 3.61-5.06 0-3.16-1.31-4.86-3.66-4.86a3 3 0 00-3.16 3h1.25a2 2 0 012-1.95c1.79 0 2.27 2 2.27 3.22zm14.16 0v-4h-1.26v9.36h1.26v-4.57l3.26 4.57h1.51l-3.78-5L97 42.78h-1.4zM109.73 49a2.21 2.21 0 01-2 2.33c-1.24 0-2.39-1.15-2.39-3.81 0-.81.06-4 2.33-4 1.5 0 1.87 1.26 2 2.11h1.25c-.19-2.63-1.88-3.17-3.2-3.17-3.52 0-3.63 4-3.63 5.12 0 2.41 1 4.8 3.65 4.8 2.51 0 3.13-2.06 3.28-3.38zm10.5-5.2h3.51v8.3H125v-9.32h-6v9.36h1.23zm14.68 2.94v-2.9h4.3v-1.06h-5.54v9.36h5.67v-1.06h-4.43v-3.25h3.91v-1zm16.58 4.3h-3.55a11.91 11.91 0 001.24-6.04v-1.16h2.31v7.24zm-5.64 0l.09 3.18H147v-2.08h5.58v2.12h1.1l.08-3.18h-1.06v-8.3h-4.8v1.93a12.11 12.11 0 01-1.39 6.37zm16.87-1.22v-7.04h-1.26v9.36h1.22l3.76-7.14v7.14h1.23v-9.36h-1.23zm14.87 1.22v-8.3h-1.25v9.36h5.88v2.12h1.09l.09-3.18h-1.05v-8.3h-1.24v8.3zm14.72-1.22v-7.04h-1.25v9.36h1.2L196 45v7.14h1.25v-9.36H196zm16.53-6h1.83v3.53H209a1.77 1.77 0 01-.12-3.53zm1.83 4.59v3.72h1.24v-9.35h-3.16a2.52 2.52 0 00-2.84 2.8 2.45 2.45 0 002.09 2.71l-2 3.86h1.45l1.81-3.72zm-180-13.62l23-10a140.54 140.54 0 01-23 2.47 140.54 140.54 0 01-23-2.47l23 10zm0 9L14.31 54.9l16.36-20.09L47 54.9 30.67 43.77zM47.15 55a76 76 0 01-16.45 1.82A75.92 75.92 0 0114.19 55 75 75 0 017.4 40a76 76 0 01-3.34-16.38 75.48 75.48 0 0112.2-11.1 74.12 74.12 0 0114.4-8.23A76 76 0 0145 12.47 75 75 0 0157.31 23.7 77.16 77.16 0 0154 39.84 76.49 76.49 0 0147.15 55zM59.5 23a77.36 77.36 0 01-3.44 17.57 80.69 80.69 0 01-7.52 16.39A77.53 77.53 0 0130.72 59a76.1 76.1 0 01-17.85-2.06 78.38 78.38 0 01-11-34A77.34 77.34 0 0115 10.76 76.18 76.18 0 0130.67 2a77.71 77.71 0 0115.62 8.76A77 77 0 0159.5 22.94zm-32.6-1.57a.94.94 0 11.89-1 1 1 0 01-.89 1zm5.56-6.29h-1.05v1.24a7.71 7.71 0 01-.69 3.4h1.76v-4.64zm2 4.77c.17 0 .15.08.15.2v2.13c0 .09 0 .18-.14.18h-1.11c-.17 0-.16-.06-.16-.18v-1.39h-3v1.35c0 .13 0 .2-.16.19H29c-.14 0-.14-.06-.14-.18v-2.13c0-.12 0-.2.14-.19h.32a8 8 0 00.84-3.72v-1.16h-.54c-.08 0-.22 0-.22-.21v-.54c0-.25.13-.2.22-.2h4.75c.08 0 .22 0 .22.21v.53c0 .25-.13.21-.22.21h-.52v4.88zm2.21 1.66a1 1 0 01-.81-1.1 1 1 0 011.94.34 1 1 0 01-1.16.76zm2.68-1.51s0-.17.22-.12l.76.2c.2.05.14.16.13.22l-.23.9a1.68 1.68 0 00.54.25 1.59 1.59 0 001.17-.09 2.61 2.61 0 001-1.64l-1.66-.42c-.09 0-.21 0-.15-.26l.16-.62c.07-.25.17-.19.26-.17l1.66.42A2.43 2.43 0 0043 17a1.49 1.49 0 00-.93-.58 1.62 1.62 0 00-.56-.05l-.24.89c0 .09 0 .18-.22.12l-.75-.19c-.06 0-.19 0-.14-.22l.34-1.32c.1-.37 1.22-.37 1.9-.2a2.63 2.63 0 012.11 2.2 5.54 5.54 0 01-.23 2.25 4.25 4.25 0 01-1 2 3 3 0 01-2.91.59 3.53 3.53 0 01-1.29-.64c-.08-.06-.24-.21-.21-.36zm-17.38 1.3l.41-.12c.08 0 .19-.1.26.14l.15.51c.07.24-.07.24-.14.26l-2.11.61c-.08 0-.19.1-.26-.14l-.15-.51c-.06-.24.07-.23.15-.26l.41-.12-.57-1.94-.27.07c-.59.18-.42.51-.39.81l.1 1.2a1.56 1.56 0 01-.13 1.05 1.76 1.76 0 01-.9.6c-.16.05-.19 0-.24-.08l-.46-.65a.14.14 0 01.05-.22l.22-.12a.45.45 0 00.24-.28 1.72 1.72 0 000-.48l-.08-.84a1.28 1.28 0 01.55-1.25 1.12 1.12 0 01-1-.7l-.31-.64c-.21-.45-.35-.49-.59-.48h-.25c-.09 0-.15-.07-.15-.17v-.73a.16.16 0 01.15-.16 1.69 1.69 0 01.87 0 1.31 1.31 0 01.87.84l.38.76c.27.55.41.65.87.52l.19-.06-.49-1.69-.42.12c-.08 0-.19.1-.26-.14l-.15-.51c-.06-.23.07-.24.14-.26l2.11-.62c.08 0 .19-.08.26.15l.15.51c.07.24-.07.24-.14.26l-.42.12.49 1.69.19-.05c.46-.14.53-.3.46-.91l-.09-.84a1.31 1.31 0 01.28-1.18 1.85 1.85 0 01.74-.47.17.17 0 01.21.06l.39.61c.06.09.05.19 0 .23L23 16c-.2.12-.31.23-.24.72l.08.71a1.11 1.11 0 01-.47 1.13 1.27 1.27 0 011.14.75l.38.75a1.56 1.56 0 00.26.41.41.41 0 00.34.1h.26a.13.13 0 01.15.16v.79c0 .08 0 .15-.16.2a1.72 1.72 0 01-1.08 0 1.54 1.54 0 01-.67-.82l-.55-1.07c-.14-.27-.18-.64-.76-.47l-.29.08z" fill="#e84339" fill-rule="evenodd"/></svg>