<svg xmlns="http://www.w3.org/2000/svg" viewBox="0 0 366.4 366.4"><path d="M362.4 47.8c-2.4-2.4-5.6-4-9.6-4H13.6c-3.6 0-7.2 1.6-9.6 4-2.4 2.4-4 5.6-4 9.6V309c.4 4 1.6 7.2 4.4 9.6 2.4 2.4 6 4 9.6 4h338.8c3.6 0 7.2-1.6 9.6-4 2.4-2.4 4-5.6 4-9.6V57.4c0-3.6-1.6-7.2-4-9.6zM354 309c0 .4 0 .4-.4.8 0 0-.4.4-.8.4H13.6c-.4 0-.4 0-.8-.4 0 0-.4-.4-.4-.8V57.4h.4c0-.4 0-.4.4-.8 0 0 .4-.4.8-.4h338.8c.4 0 .4 0 .8.4 0 0 .4.4.4.8V309z"/><path d="M326.4 86.2c-2-2-4.8-3.2-8-3.2H48c-3.2 0-6 1.2-8 3.2s-3.2 4.8-3.2 8V273c-.4 2.8.8 5.6 3.2 8 2 2 4.8 3.2 8 3.2h270.4c3.2 0 6-1.2 8-3.2s3.2-4.8 3.2-8V94.2c0-3.2-1.2-6-3.2-8zm-100 186v-.4H60l28-48.4 28-48.4 28 48.4v.4l9.6 16.8c.4.8 1.2 1.6 2.4 2.4 2.8 1.6 6.8.8 8.4-2.4l22-38 40-69.6 40 69.2v.4l40 69.6h-80zm91.2-6.4l-40.4-69.6v-.4l-45.6-78.4c-1.6-2.8-5.6-4-8.4-2.4-.8.4-1.6 1.2-2.4 2.4l-45.2 78.8-16.4 28.4-4.4-7.6v-.4L121.6 159c-1.6-2.8-5.6-4-8.4-2.4-.8.4-1.6 1.2-2.4 2.4l-33.2 58-28 48.8V95h268v170.8z"/><path d="M174.4 116.6c-4-4-10-6.8-16.4-6.8-6 0-11.6 2.4-16 6.4l-.4.4c-4 4-6.8 10-6.8 16.4 0 6.4 2.8 12 6.8 16.4 4 4 10 6.8 16.4 6.8 6.4 0 12-2.4 16.4-6.8 4-4 6.8-10 6.8-16.4 0-6.4-2.4-12-6.8-16.4zm-8.8 24c-2 2-4.8 3.2-7.6 3.2s-5.6-1.2-7.6-3.2-3.2-4.8-3.2-7.6c0-3.2 1.2-5.6 3.2-7.6s4.8-3.2 7.6-3.2 5.6 1.2 7.6 3.2 3.2 4.8 3.2 7.6-1.2 5.6-3.2 7.6z"/></svg>