<svg version="1.1" id="Capa_1" xmlns="http://www.w3.org/2000/svg" x="0" y="0" viewBox="-243 245 512 512" xml:space="preserve"><style>.st0{fill:#ff393c}</style><path class="st0" d="M264.1 673.4L44.2 292.5c-6.5-11.3-18.2-18-31.2-18s-24.7 6.7-31.2 18l-219.9 380.9c-6.5 11.3-6.5 24.8 0 36 6.5 11.3 18.2 18 31.2 18h439.8c13 0 24.7-6.7 31.2-18 6.5-11.2 6.5-24.7 0-36zm-26 21c-.6 1.1-2.2 3-5.2 3h-439.8c-3 0-4.6-1.9-5.2-3-.6-1.1-1.5-3.4 0-6L7.8 307.6c1.5-2.6 3.9-3 5.2-3 1.3 0 3.7.4 5.2 3l219.9 380.9c1.5 2.5.6 4.8 0 5.9z"/><path class="st0" d="M-2 411.1h30v160.2H-2z"/><circle class="st0" cx="13" cy="621.4" r="20"/></svg>